<svg width="25" height="25" viewBox="0 0 25 25" fill="none" xmlns="http://www.w3.org/2000/svg">
<g clip-path="url(#clip0_1558_1138)">
<path d="M8.49023 17.2285L12.4902 21.2285L16.4902 17.2285" stroke="#A91F2F" stroke-width="2" stroke-linecap="round" stroke-linejoin="round"/>
<path d="M12.4902 12.2285V21.2285" stroke="#A91F2F" stroke-width="2" stroke-linecap="round" stroke-linejoin="round"/>
<path d="M21.3704 18.3184C22.2398 17.7071 22.8918 16.8346 23.2317 15.8276C23.5716 14.8206 23.5818 13.7315 23.2608 12.7183C22.9398 11.7051 22.3043 10.8205 21.4465 10.193C20.5887 9.56548 19.5532 9.22762 18.4904 9.22845H17.2304C16.9296 8.05632 16.3669 6.9677 15.5845 6.04453C14.8022 5.12136 13.8206 4.38771 12.7136 3.8988C11.6067 3.4099 10.4033 3.17848 9.19394 3.22197C7.98462 3.26545 6.80092 3.58272 5.73196 4.14987C4.663 4.71703 3.73664 5.5193 3.0226 6.49628C2.30856 7.47326 1.82546 8.59949 1.60967 9.7902C1.39388 10.9809 1.45102 12.205 1.77679 13.3705C2.10256 14.5359 2.68847 15.6122 3.49041 16.5184" stroke="#A91F2F" stroke-width="2" stroke-linecap="round" stroke-linejoin="round"/>
</g>
<defs>
<clipPath id="clip0_1558_1138">
<rect width="24" height="24" fill="white" transform="translate(0.490234 0.228516)"/>
</clipPath>
</defs>
</svg>
