<svg width="43" height="43" viewBox="0 0 43 43" fill="none" xmlns="http://www.w3.org/2000/svg">
<rect x="0.894531" y="0.228516" width="42" height="42" rx="21" fill="#A91F2F"/>
<path d="M23.8945 11.2285H15.8945C15.3641 11.2285 14.8554 11.4392 14.4803 11.8143C14.1052 12.1894 13.8945 12.6981 13.8945 13.2285V29.2285C13.8945 29.7589 14.1052 30.2677 14.4803 30.6427C14.8554 31.0178 15.3641 31.2285 15.8945 31.2285H27.8945C28.425 31.2285 28.9337 31.0178 29.3087 30.6427C29.6838 30.2677 29.8945 29.7589 29.8945 29.2285V17.2285L23.8945 11.2285Z" stroke="white" stroke-linecap="round" stroke-linejoin="round"/>
<path d="M23.8945 11.2285V17.2285H29.8945" stroke="white" stroke-linecap="round" stroke-linejoin="round"/>
<path d="M25.8945 22.2285H17.8945" stroke="white" stroke-linecap="round" stroke-linejoin="round"/>
<path d="M25.8945 26.2285H17.8945" stroke="white" stroke-linecap="round" stroke-linejoin="round"/>
<path d="M19.8945 18.2285H18.8945H17.8945" stroke="white" stroke-linecap="round" stroke-linejoin="round"/>
</svg>
